<?xml version="1.0" standalone="no"?><!DOCTYPE svg PUBLIC "-//W3C//DTD SVG 1.1//EN" "http://www.w3.org/Graphics/SVG/1.1/DTD/svg11.dtd"><svg t="1691743439009" class="icon" viewBox="0 0 1628 1024" version="1.1" xmlns="http://www.w3.org/2000/svg" p-id="11789" xmlns:xlink="http://www.w3.org/1999/xlink" width="76.3125" height="48"><path d="M1371.377031 637.51327c31.613189-16.600798 57.66695-39.439003 82.151675-62.877703 28.12644-26.886707 54.83881-55.187485 73.899703-87.071865 50.557857-84.61177 41.976581-185.16573 17.433744-277.370864-10.014717-37.811853-24.116679-77.483306-59.042279-103.110909-7.050981 75.429998-32.233055 150.259501-79.091084 215.229253-6.295519 8.736243-13.075308 17.259406-20.184402 25.588862a184.371526 184.371526 0 0 0-5.423831-27.216012c-13.36587-51.758848-26.789853-103.808259-50.984015-152.719596s-60.049562-95.16887-111.09169-126.975767c26.208728 151.751055-41.976581 312.528914-176.913758 417.383198-15.147986-15.690369-27.603428-34.673779-50.732195-38.315495-29.28869-4.610257-53.327885 19.370826-64.969752 42.150919s-40.097611 51.507028-66.09326 63.613794c24.271646-10.479617 74.713278 0.309933 89.570702 19.370826s18.305431 42.402739 23.961712 64.582336c6.915385 27.119157 18.402285 54.470764 42.112177 73.919073 36.707716 30.121635 93.193046 34.383217 140.283525 52.01067 50.092957 18.731589 90.71358 54.238314 110.62679 96.660424s27.855248 70.296729 6.121181 112.137714c66.771239-14.431266 98.306944-18.51851 159.925544-65.86081 43.196943-33.182226 57.395759-69.61875 72.582487-116.069992-58.693604-1.704633-54.567618 3.75794-110.278116-11.622496s-108.011728-46.335017-130.481887-91.275334c37.056391 4.45529 75.00384-5.540056 106.617029-22.160226zM719.025708 602.335849c5.675652-22.179596 9.123659-45.560184 23.961712-64.601706s65.299056-29.831073 89.570702-19.370827c-25.995649-12.087396-54.432022-40.872444-66.073889-63.613794s-35.700433-46.741804-64.989123-42.150918c-23.128767 3.641715-35.564837 22.644496-50.732195 38.315495C515.845109 346.079186 447.6598 185.301326 473.849157 33.569642c-51.042128 31.787526-86.820044 77.986947-111.09169 126.975768s-37.618145 100.941377-50.964644 152.719596a181.485273 181.485273 0 0 0-5.443202 27.216011c-7.089722-8.348826-13.869512-16.852619-20.184401-25.608233-46.838658-64.93101-72.040104-139.760513-79.168568-215.190511-34.867488 25.685716-49.046933 65.299056-59.06165 103.091539-24.445983 92.224505-32.930405 192.759094 17.530598 277.370864 19.060893 31.88438 45.792634 60.185158 73.899703 87.168719 24.484725 23.4387 50.557857 46.276904 82.151675 62.877703s69.580009 26.596145 106.539545 22.218338c-22.470159 44.940317-74.752019 75.93364-130.481887 91.275334s-51.584511 9.879122-110.258744 11.622496c15.186728 46.489984 29.366173 82.868396 72.563116 116.050621 61.618599 47.3423 93.173675 51.410173 159.925543 65.86081-21.675955-41.840985-13.772658-69.734975 6.140552-112.176456s60.514462-77.928835 110.60742-96.660424c47.090479-17.608081 103.575809-21.889034 140.302896-52.010669 23.787375-19.583906 35.274275-46.993625 42.170289-74.035299z" fill="#FFFFFF" p-id="11790"></path><path d="M1006.120727 125.581068c-2.847511-15.496661-9.394851-31.341997-22.063371-40.872444-21.501617-16.252123-53.560335-9.123659-74.480828 7.748331-20.184401 16.329607-49.841137 66.09326-49.841137 66.09326l-42.034693-68.146568a46.606209 46.606209 0 0 0-25.046479-15.748482c-14.52812-3.27367-37.773112-2.537578-48.872595 7.438398-80.582638 72.311295 29.346802 172.012939 76.63099 228.575752 13.11405 15.670999 26.925449 31.768155 45.443959 40.175094a534.169911 534.169911 0 0 1 78.897376-91.294705c13.559579-12.532925 27.913361-24.504095 39.012844-39.167811a121.88124 121.88124 0 0 0 22.353934-94.800825z" fill="#ED758D" p-id="11791"></path><path d="M1504.415867 745.56374c-11.176967-0.309933-20.106918-0.387417-27.622798-0.387416h-14.353783c-18.344173 0-27.274124-0.406787-64.504852-10.653955-44.959688-12.377958-81.357471-33.27908-104.07945-59.100391a214.260712 214.260712 0 0 0 83.430149-24.620321c33.763351-17.724306 61.17307-41.95721 85.812762-65.512135 26.034391-24.930254 55.478047-55.168114 76.553506-90.46176 44.804722-74.965098 51.119611-169.746552 19.370826-289.729451-10.963888-41.337344-26.402436-83.507633-65.066606-111.944006l-22.935058-16.85262-2.673174 28.281407c-7.167206 75.546223-33.04663 146.443448-74.771391 205.098311-12.90097-49.976732-26.596145-101.367535-50.557857-149.872085-28.82379-58.112479-68.20468-103.072168-117.019163-133.484365l-30.47031-18.98341 6.101811 35.371129c24.504095 142.065641-36.668975 291.066039-159.576869 392.588541-12.358587-13.714545-26.596145-28.475115-49.724911-32.09746-38.179899-5.966215-67.797893 23.477442-81.803 50.712824-10.808921 21.075459-37.075762 46.354388-58.538638 56.369105l13.152791 29.346802a47.303558 47.303558 0 0 1 17.646823-2.770028c22.547642 0 46.489984 9.104288 52.843615 17.240035 10.208426 13.075308 14.121333 29.714848 18.189206 47.148592 0.9298 3.874165 1.937083 7.748331 2.80877 11.622496 9.549817 37.482549 24.639691 63.652536 47.497266 82.384125 27.119157 22.179596 62.451545 31.419481 96.679795 40.349431 16.252123 4.242211 33.04663 8.639389 48.175245 14.29567 46.373759 17.33689 83.43015 49.569945 101.677469 88.427823 20.048805 42.615818 24.019825 63.923727 6.411743 97.919528L1241.340673 966.604241l47.187333-10.169684c57.64758-12.281104 92.456955-19.700131 152.56463-65.86081 46.489984-35.739175 62.277207-75.546223 78.06443-123.837693l6.682936-20.474964zM1237.98952 74.732649c30.547793 25.608233 56.078543 58.906683 76.146719 99.430452 23.4387 47.381042 36.80457 99.294857 50.112328 150.801884 1.452812 5.811248 2.828141 11.331933 3.874165 16.717023-3.874165 4.45529-7.903297 8.891209-12.048654 13.191533-1.18162 1.239733-2.324499 2.537578-3.544861 3.75794a413.818966 413.818966 0 0 1-44.126743 38.741653c-1.046025 0.794204-2.130791 1.549666-3.196186 2.3245q-9.995346 7.457768-20.455593 14.31504c-1.782116 1.18162-3.602974 2.324499-5.40446 3.467378-6.314889 4.009761-12.765375 7.748331-19.370827 11.525642-2.247016 1.259104-4.494032 2.537578-6.760418 3.75794-6.314889 3.409265-12.746004 6.586081-19.21586 9.685414-2.421353 1.142879-4.803965 2.363241-7.244689 3.467377q-11.854946 5.346348-24.077938 9.956605c-0.832946 0.309933-1.64652 0.69735-2.479465 1.007283-4.339065 1.607779-8.368197 2.847511-12.513554 4.22284-23.244992 7.632106-43.642472 11.622496-63.923728 11.816205h-1.375328a134.879065 134.879065 0 0 1-16.271495-1.142879c-2.11142-0.290562-4.067874-0.774833-6.121181-1.16225-3.52549-0.639237-7.03161-1.336587-10.344021-2.285757-2.130791-0.600496-4.106615-1.355958-6.140552-2.072679a89.105802 89.105802 0 0 1-8.581276-3.467378c-1.937083-0.910429-3.75794-1.937083-5.540057-2.924994-1.200991-0.677979-2.227645-1.472183-3.351153-2.208275 119.0531-100.050319 182.666894-242.503377 171.954827-382.922497z m183.557952 790.32972c-49.22127 37.811853-77.270227 46.335017-124.380077 56.620926 9.026805-35.603579-2.053308-64.543594-17.298148-97.02847-21.772809-46.393129-65.337798-84.631141-119.53737-104.893026a527.738797 527.738797 0 0 0-51.33269-15.283582c-32.291168-8.42631-62.800219-16.387719-84.398691-34.112025-17.278777-14.160074-28.940015-34.867488-36.707717-65.454023-0.9298-3.641715-1.801487-7.322172-2.673174-10.983258-4.552144-19.177118-9.685413-40.891815-24.194162-59.52655-10.518359-13.559579-30.877097-22.5089-51.507027-26.770482a160.661635 160.661635 0 0 0 29.656735-38.954732c8.658759-16.930102 26.518661-37.230728 48.155874-33.569643 11.622496 1.820858 20.261884 10.266538 29.501769 20.436222l-0.309933 0.251821 11.25445 11.622496a128.467321 128.467321 0 0 0 10.963888 10.498988c20.688043 17.278777 51.623253 27.119157 84.921703 27.119157h1.937083c22.48953-0.290562 45.889488-4.803965 72.291924-13.559579 4.494032-1.472183 8.871839-2.80877 13.559579-4.532773 0.639237-0.251821 1.239733-0.561754 1.937082-0.794204q13.772658-5.172011 27.119158-11.235079c2.363241-1.065395 4.668369-2.285758 7.03161-3.389895 7.322172-3.467378 14.586232-7.070352 21.714696-10.925146 2.247016-1.220362 4.435919-2.498837 6.663564-3.75794 7.186577-4.048503 14.276299-8.251972 21.307909-12.687892 1.937083-1.239733 3.874165-2.518207 5.811248-3.874165q10.595842-6.992868 20.823639-14.566862c1.724004-1.297845 3.448007-2.556949 5.15264-3.874165q10.402134-7.96141 20.281255-16.503944c1.452812-1.239733 2.924995-2.440724 4.358436-3.699828q10.692696-9.472334 20.784897-19.603276c0.69735-0.716721 1.452812-1.3947 2.169532-2.11142 7.128464-7.283431 14.06322-14.76057 20.688043-22.528272l4.397178-5.152639v-0.368046c5.811248-6.954127 11.351304-13.946995 16.600798-21.307909 39.826419-55.206855 66.480676-120.525282 77.967576-190.531449 16.058415 21.036718 24.794658 47.206704 31.651931 73.14424 29.482398 111.188544 24.310387 197.853622-15.787224 264.992907-19.099635 32.019976-46.703063 60.282012-71.187787 83.720712-22.915688 21.927776-48.2721 44.378563-78.50996 60.24327-18.595993 9.685413-47.8072 21.307909-81.357471 21.307909a132.128407 132.128407 0 0 1-15.884078-0.9298l-29.637364-3.506119 13.346499 26.692999c22.431417 44.862834 73.609141 81.163763 140.593459 99.585419 39.206553 10.808921 51.177724 11.816204 73.047387 11.816204h19.157747c-12.610408 35.487354-26.983561 62.412803-60.146416 87.866069zM432.589297 928.753646c-17.58871-34.015171-13.559579-55.226226 6.411743-97.938898 18.227948-38.857878 55.30371-71.071562 101.696839-88.427823 15.128615-5.656281 31.942493-10.053459 48.194617-14.29567 34.22825-8.91058 69.61875-18.169835 96.679795-40.349432 22.818834-18.692848 37.889337-44.901576 47.419783-82.364754 0.968541-3.874165 1.937083-7.612735 2.770028-11.448158 4.145357-17.549969 8.077635-34.131396 18.305431-47.226075 6.33426-8.155118 30.295973-17.240036 52.862986-17.240036a47.458525 47.458525 0 0 1 17.608081 2.750657l13.172162-29.366173c-21.462876-9.975976-47.749087-35.254904-58.558009-56.330363-13.985737-27.274124-43.700585-56.814634-81.803-50.732194-23.109396 3.641715-37.366324 18.382914-49.705541 32.097459-122.985377-101.522502-184.022852-250.54227-159.576868-392.511057L494.188525 0 463.737586 18.98341c-48.833854 30.392827-88.195373 75.313773-117.019163 133.484365-23.9036 48.330212-37.560033 99.449823-50.577228 149.872085-41.608535-58.635492-67.546072-129.474604-74.713278-205.117682l-2.673174-28.281407-22.876946 16.833249c-38.644799 28.436373-54.122089 70.606663-65.085977 111.963377-31.787526 120.00227-25.492008 214.764353 19.273973 289.729451 21.172313 35.351758 50.577228 65.550877 76.592248 90.539243 24.581579 23.496813 51.991298 47.710346 85.812761 65.512135a214.028262 214.028262 0 0 0 83.468891 24.523467c-22.702609 25.821312-59.119762 46.722433-104.098821 59.119762-37.211358 10.247167-46.141309 10.653955-64.485482 10.653955h-14.373153c-7.49651 0-16.426461 0-27.603428 0.387416l-21.520988 0.619867 6.702306 20.455592c15.787224 48.310841 31.555076 88.11789 78.064431 123.837694 60.049562 46.160679 94.91705 53.579706 152.564629 65.86081l47.051738 10.130942zM375.600325 166.763445c20.068176-40.523769 45.618296-73.841591 76.16609-99.430452-10.731438 140.380379 52.882356 282.814067 171.935456 382.74816-1.200991 0.774833-2.285758 1.627149-3.564232 2.34387-1.627149 0.9298-3.293041 1.820858-5.036415 2.653803a93.212417 93.212417 0 0 1-10.111572 4.048503c-1.433441 0.484271-2.828141 1.026654-4.300323 1.452812a116.631746 116.631746 0 0 1-16.000303 3.448007h-0.48427a145.571761 145.571761 0 0 1-19.622648 1.297846 196.826968 196.826968 0 0 1-54.354539-8.949322c-6.276148-1.937083-12.823487-4.125986-19.622647-6.624823l-1.065395-0.348675-0.4649-0.193708q-13.385241-4.997673-26.402437-10.925146c-1.937083-0.910429-3.99039-1.937083-6.004956-2.886253-6.934756-3.27367-13.792028-6.663564-20.513705-10.30528-1.937083-1.065395-3.874165-2.169533-5.811248-3.254299q-10.266538-5.811248-20.184401-12.068025l-4.765224-3.041219q-10.808921-7.070352-21.075459-14.683087a47.652233 47.652233 0 0 0-2.750657-1.937083 413.528404 413.528404 0 0 1-44.126743-38.741653c-1.472183-1.472183-2.847511-3.021849-4.280952-4.532773-3.874165-4.087244-7.748331-8.290714-11.428788-12.513554 0.968541-5.61754 2.440724-11.506271 4.067873-17.956756 12.939712-50.228553 26.324953-102.142368 49.802395-149.600893z m16.988215 747.42334c-47.129221-10.285909-75.158807-18.828443-124.399447-56.640297-33.162855-25.453266-47.419783-52.301231-60.049563-87.575506h19.273973c21.869663 0 33.821463-1.007283 73.028016-11.816205 66.926205-18.421656 118.162042-54.722585 140.612829-99.585418l13.346499-26.692999-29.637364 3.506119a131.72162 131.72162 0 0 1-15.864707 0.9298c-33.589013 0-62.780849-11.622496-81.357471-21.307909-30.392827-16.000303-55.749239-38.451091-78.626185-60.243271-24.465354-23.399958-52.049411-51.642623-71.207158-83.701341-40.097611-67.119914-45.269621-153.804362-15.806594-264.973535 6.896014-25.976278 15.632257-52.146265 31.690672-73.163612 11.467529 69.986796 38.102416 135.324594 77.948206 190.531449 5.249494 7.26406 10.867034 14.276299 16.600798 21.211055v0.368046l4.397177 5.15264c6.605452 7.748331 13.559579 15.206099 20.61056 22.450788 0.891058 0.910429 1.840229 1.762745 2.750657 2.653803q9.782267 9.84038 20.184401 19.041523c1.549666 1.375329 3.157445 2.673174 4.726482 4.029131q9.685413 8.368197 19.91321 16.213382l5.365719 3.99039q10.150313 7.535251 20.707413 14.50875l5.811248 3.874165q10.5571 6.702306 21.443505 12.804116c2.11142 1.200991 4.203469 2.421353 6.33426 3.583603 7.380285 3.99039 14.896166 7.748331 22.48953 11.293192 2.072678 0.987912 4.106615 2.053308 6.198664 3.002478 9.685413 4.339065 19.370826 8.44568 29.269319 12.106767a315.860697 315.860697 0 0 0 45.153397 13.404611 208.023306 208.023306 0 0 0 40.678735 4.648999h1.801487a160.041768 160.041768 0 0 0 32.930405-3.448007 131.469799 131.469799 0 0 0 35.642321-12.726633 100.728298 100.728298 0 0 0 16.445831-11.022001 126.472126 126.472126 0 0 0 10.653955-10.150313l11.622496-11.9518-0.368046-0.290562c9.220513-10.169684 17.80179-18.615364 29.501769-20.436222 21.424134-3.486749 39.477744 16.620169 48.175245 33.569642a160.661635 160.661635 0 0 0 29.656736 38.954732c-20.62993 4.261582-40.988669 13.288387-51.507028 26.770483-14.52812 18.634735-19.68076 40.407544-24.232904 59.623403-0.852316 3.641715-1.724004 7.283431-2.634432 10.886405-7.748331 30.489681-19.467681 51.293949-36.707716 65.454023-21.617842 17.704935-52.107523 25.666345-84.379321 34.073283a526.634659 526.634659 0 0 0-51.352061 15.302953c-54.238314 20.261884-97.783932 58.480525-119.556741 104.893026-15.24484 32.329909-26.344324 61.269924-17.278777 96.892874z" fill="#684C4B" p-id="11792"></path><path d="M712.827043 489.733235a26.034391 26.034391 0 0 0 3.641716 0.271192 20.16503 20.16503 0 0 0 10.344021-2.770029 20.494334 20.494334 0 0 0 7.535252-26.441178 23.787375 23.787375 0 0 0-3.661086-5.462573l-3.409266-5.172011-3.312411-1.937082a20.126289 20.126289 0 0 0-20.397481 0.154966 21.501617 21.501617 0 0 0-10.905775 18.421656 23.613037 23.613037 0 0 0 20.16503 22.935059zM998.469251 459.84405l-3.467378-5.249494-3.312412-1.937083a20.14566 20.14566 0 0 0-20.378109 0.23245 21.501617 21.501617 0 0 0-10.886404 18.382914 23.961712 23.961712 0 0 0 23.806745 23.244992 20.087547 20.087547 0 0 0 10.382763-2.80877 20.494334 20.494334 0 0 0 7.515881-26.421807 23.651779 23.651779 0 0 0-3.661086-5.443202zM88.272856 300.073473l-31.264514-7.748331a244.711651 244.711651 0 0 0 21.249797 170.753836l28.455744-15.070503a212.013696 212.013696 0 0 1-18.441027-147.935002zM32.930405 360.142406L1.41407 353.595066c-3.544861 17.10444 0.329304 33.937688 3.467378 47.477896 6.024327 26.053762 12.261733 52.95984 24.949625 78.141914l28.707565-14.54749c-10.983259-21.695326-16.775136-46.703063-22.373305-70.897225-2.595691-11.409417-5.346348-23.458071-3.234928-33.627755zM1531.070125 923.697861l9.239884 30.838355c11.196338-3.351153 17.433744-12.591037 20.281255-17.007585a222.086526 222.086526 0 0 0 36.533379-141.058359l-32.078089 2.653803a189.834099 189.834099 0 0 1-31.206401 120.525283 33.9958 33.9958 0 0 1-2.770028 4.048503zM1596.795339 894.951554a145.533019 145.533019 0 0 1-62.761478 102.297335l17.918015 26.751111a178.211604 178.211604 0 0 0 76.805327-125.213022zM786.300588 296.95477c7.399656 8.310085 14.315041 16.077786 20.242514 23.148138 12.784745 15.302953 28.707565 34.325105 51.119611 44.5529l12.300475 5.559428 7.632105-11.138226a520.416624 520.416624 0 0 1 76.553507-88.563418l7.74833-7.070352c11.428788-10.382763 23.244992-21.133572 33.143484-34.170138a138.540151 138.540151 0 0 0 25.375783-107.488716c-4.125986-22.450788-13.869512-40.020127-28.203923-50.809678-25.065849-18.925297-66.073889-14.683086-94.297184 8.174489-13.036566 10.5571-28.533227 31.787526-39.535856 48.252729L829.846206 81.08628l-1.472183-1.937083c-6.624823-7.748331-17.879273-17.646823-33.724608-20.978605a94.316554 94.316554 0 0 0-20.300627-2.130791c-10.479617 0-29.986039 1.724004-42.867639 13.288387-82.248529 73.764107 3.564232 170.075856 54.819439 227.626582z m-33.317821-203.742353c2.80877-2.518207 10.498988-5.075157 21.307909-5.075157a63.168265 63.168265 0 0 1 13.443353 1.414071 30.373456 30.373456 0 0 1 15.380437 9.685413l55.32308 89.415735 13.559579-22.799463c7.748331-13.152791 31.380739-49.899249 46.141308-61.812307 16.87199-13.733916 41.25986-17.58871 54.645102-7.49651 9.84038 7.399656 14.101962 20.901122 15.94219 30.993323a105.958421 105.958421 0 0 1-19.370826 82.190416c-8.077635 10.653955-18.324802 19.951951-29.05624 29.772961l-8.000152 7.264059a552.494713 552.494713 0 0 0-72.601857 81.744888c-10.750809-7.942039-20.048805-19.022152-28.455744-29.05624-6.121181-7.302802-13.269016-15.322324-20.901122-23.903599-63.323232-71.090933-111.343511-133.871782-57.357017-182.33759z" fill="#684C4B" p-id="11793"></path></svg>