<svg t="1692083707531" class="icon" viewBox="0 0 1024 1024" version="1.1" xmlns="http://www.w3.org/2000/svg" p-id="5490" width="16" height="16"><path d="M512 32C247.04 32 32 247.04 32 512s215.04 480 480 480 480-215.04 480-480S776.96 32 512 32z m58.56 725.76c0 25.92-21.12 47.04-47.04 47.04h-23.52c-25.92 0-47.04-21.12-47.04-47.04V476.96c0-25.92 21.12-47.04 47.04-47.04h23.52c25.92 0 47.04 21.12 47.04 47.04v280.8zM512 359.84c-32.16 0-58.56-26.4-58.56-58.56 0-32.16 26.4-58.56 58.56-58.56s58.56 26.4 58.56 58.56c0 32.16-26.4 58.56-58.56 58.56z" p-id="5491" fill="#c1c5ce"></path></svg>