<svg t="1692017675517" class="icon" viewBox="0 0 1024 1024" version="1.1" xmlns="http://www.w3.org/2000/svg" p-id="7272" width="16" height="16"><path d="M992 544H778.7c-17.6 0-32 14.4-32 32s14.4 32 32 32H992c17.6 0 32-14.4 32-32s-14.4-32-32-32zM992 416H821.3c-17.6 0-32 14.4-32 32s14.4 32 32 32H992c17.6 0 32-14.4 32-32s-14.4-32-32-32zM864 352h128c17.6 0 32-14.4 32-32s-14.4-32-32-32H864c-17.6 0-32 14.4-32 32s14.4 32 32 32z" p-id="7273" fill="#c1c5ce"></path><path d="M687.5 670.8c-16.3-13-20.4-35.9-10.1-54.1 24.7-43.7 69.3-156.7 69.3-403.3 0-128-128.9-192-234.7-192-106.2 0-234.7 64-234.7 192 0 246.6 44.5 359.6 69.3 403.3 10.3 18.2 6.2 41.1-10.1 54.1-69.6 55.6-229.2 76.2-306.7 209.5-5.9 10.1-8.5 21.8-8.5 33.5 0 37.3 30.3 67.6 67.6 67.6H935c37.3 0 67.6-30.3 67.6-67.6 0-11.6-2.6-23.4-8.5-33.5-77.4-133.3-237-153.9-306.6-209.5z" p-id="7274" fill="#c1c5ce"></path></svg>