<svg t="1691999221604" class="icon" viewBox="0 0 1024 1024" version="1.1" xmlns="http://www.w3.org/2000/svg" p-id="17119" width="16" height="16"><path d="M587.513453 925.046667a517.833333 517.833333 0 0 1-269.013333-8.893334c-34.453333 19.66-74.666667 35.113333-119.68 46C146.00012 974.873333 86.286787 981.333333 21.333453 981.333333a21.333333 21.333333 0 0 1-10.973333-39.626666c65.813333-39.486667 110.1-75.9 140.74-116.066667C54.806787 744.9 0.00012 631.68 0.00012 512a391.093333 391.093333 0 0 1 37.213333-166.806667c23.773333-50.853333 57.76-96.486667 101.02-135.626666C181.333453 170.566667 231.506787 139.96 287.333453 118.593333 345.00012 96.526667 406.24012 85.333333 469.333453 85.333333s124.333333 11.193333 182 33.26c55.82 21.366667 106 52 149.086667 90.973334 43.266667 39.14 77.253333 84.773333 101.026667 135.626666a391.606667 391.606667 0 0 1 35.5 130 305.026667 305.026667 0 0 0-54.666667-27.526666 321.253333 321.253333 0 0 0-228.626667 0 300.373333 300.373333 0 0 0-94.666666 58.1c-27.88 25.333333-49.84 55.013333-65.266667 88.173333a260.173333 260.173333 0 0 0 0 220.066667c15.426667 33.16 37.386667 62.826667 65.266667 88.173333a295.626667 295.626667 0 0 0 28.526666 22.866667z m426.126667 16.666666a190.466667 190.466667 0 0 1-67.786667-68.886666C995.733453 828.666667 1024.00012 768.08 1024.00012 704a216.666667 216.666667 0 0 0-20.433333-92.04c-13.02-28-31.62-53.086667-55.28-74.593333C900.00012 493.493333 836.00012 469.333333 768.00012 469.333333s-132 24.16-180.286667 68c-23.66 21.506667-42.26 46.606667-55.28 74.593334a217.506667 217.506667 0 0 0 0 184.08c13.02 28 31.62 53.086667 55.28 74.593333C636.00012 914.506667 700.00012 938.666667 768.00012 938.666667a277.46 277.46 0 0 0 74.086667-10c31.693333 25.64 83.406667 52.666667 160.58 52.666666a21.333333 21.333333 0 0 0 10.973333-39.626666z" fill="#c1c5ce" p-id="17120"></path></svg>